<svg aria-hidden="true" style="position: absolute; width: 0; height: 0; overflow: hidden;" version="1.1" xmlns="http://www.w3.org/2000/svg" xmlns:xlink="http://www.w3.org/1999/xlink">
<defs>
<symbol id="icon-high-five" viewBox="0 0 32 32">
<title>high-five</title>
<path d="M15.995 0c-0.357 0-0.646 0.289-0.646 0.646v3.288c-0 0.357 0.289 0.646 0.646 0.646s0.646-0.289 0.646-0.646v-3.288c-0-0.357-0.289-0.646-0.646-0.646z"></path>
<path d="M14.205 3.477l-2.325-2.325c-0.252-0.252-0.662-0.252-0.914 0s-0.252 0.661 0 0.914l2.325 2.325c0.252 0.252 0.662 0.252 0.914-0s0.252-0.662 0-0.914z"></path>
<path d="M21.040 1.152c-0.252-0.252-0.661-0.252-0.914-0l-2.325 2.325c-0.252 0.252-0.252 0.662 0 0.914s0.662 0.252 0.914 0l2.325-2.325c0.252-0.252 0.252-0.662 0-0.914z"></path>
<path d="M15.995 12.472c-0.357 0-0.646 0.289-0.646 0.646v3.288c0 0.357 0.289 0.646 0.646 0.646s0.646-0.289 0.646-0.646v-3.288c-0-0.357-0.289-0.646-0.646-0.646z"></path>
<path d="M14.205 12.661c-0.252-0.252-0.661-0.252-0.914-0l-2.325 2.325c-0.252 0.252-0.252 0.662 0 0.914s0.661 0.252 0.914 0l2.325-2.325c0.252-0.252 0.252-0.662 0-0.914z"></path>
<path d="M21.040 14.986l-2.325-2.325c-0.252-0.252-0.662-0.252-0.914 0s-0.252 0.662 0 0.914l2.325 2.325c0.252 0.252 0.662 0.252 0.914-0s0.252-0.662 0-0.914z"></path>
<path d="M27.879 6.148c0 1.577-1.278 2.855-2.855 2.855s-2.855-1.278-2.855-2.855c0-1.577 1.278-2.855 2.855-2.855s2.855 1.278 2.855 2.855z"></path>
<path d="M30.812 14.173l-2.595-3.954c-0.202-0.308-0.546-0.493-0.914-0.493-0.656 0-3.904 0-4.406 0l-3.763-0.44-1.355-3.236c-0.233-0.557-0.874-0.82-1.431-0.586-0.134 0.056-0.251 0.137-0.348 0.233-0.097-0.097-0.214-0.177-0.348-0.233-0.557-0.233-1.197 0.029-1.431 0.586l-1.355 3.236-3.763 0.44c-0.484 0-3.85 0-4.406 0-0.368 0-0.712 0.185-0.914 0.493l-2.595 3.954c-0.15 0.229-0.209 0.506-0.165 0.776l0.766 4.691c0.097 0.596 0.659 1 1.255 0.903s1-0.659 0.903-1.255l-0.697-4.271 0.858-1.308c0 2.835-0.024 7.7-0.024 10.534l-1.262 6.183c-0.145 0.71 0.313 1.403 1.023 1.548 0.711 0.145 1.403-0.314 1.548-1.023l1.288-6.313c0.018-0.086 0.027-0.174 0.027-0.262v-4.173h0.566v10.486c0 0.724 0.587 1.312 1.312 1.312s1.312-0.587 1.312-1.312c0-1.163 0.001-18.854 0.001-18.854l3.857-0.451c0.392-0.046 0.729-0.3 0.882-0.664l1.363-3.257 1.363 3.257c0.152 0.364 0.489 0.618 0.881 0.664l3.857 0.451c0 0 0 17.691 0 18.854 0 0.724 0.587 1.312 1.312 1.312s1.312-0.587 1.312-1.312v-10.486h0.566v4.173c0 0.088 0.009 0.176 0.026 0.262l1.288 6.313c0.145 0.71 0.837 1.168 1.548 1.023s1.168-0.838 1.023-1.548l-1.262-6.183c0-1.76-0.024-5.965-0.024-10.534l0.858 1.308-0.697 4.271c-0.097 0.596 0.307 1.158 0.903 1.255s1.158-0.307 1.255-0.903l0.766-4.691c0.044-0.27-0.015-0.547-0.165-0.776z"></path>
<path d="M9.83 6.148c0 1.577-1.278 2.855-2.855 2.855s-2.855-1.278-2.855-2.855c0-1.577 1.278-2.855 2.855-2.855s2.855 1.278 2.855 2.855z"></path>
</symbol>
<symbol id="icon-classroom" viewBox="0 0 32 32">
<title>classroom</title>
<path d="M11.683 3.503c-0.277 0-0.502 0.225-0.502 0.502s0.225 0.502 0.502 0.502h4.136c0.088-0.363 0.24-0.702 0.442-1.004h-4.578z"></path>
<path d="M30.483 0h-21.523c-0.381 0-0.69 0.309-0.69 0.69v14.422c0 0.381 0.309 0.69 0.69 0.69h3.59l0.007-1.38h-2.907v-13.042h20.143v13.042h-7.144v1.38h7.834c0.381 0 0.69-0.309 0.69-0.69v-14.422c0-0.381-0.309-0.69-0.69-0.69z"></path>
<path d="M18.871 3.050c-1.215 0-2.2 0.985-2.2 2.2 0 0.591 0.237 1.166 0.681 1.59 0.381 0 2.664 0 3.037 0 0.419-0.401 0.681-0.965 0.681-1.59 0-1.215-0.985-2.2-2.2-2.2z"></path>
<path d="M28.602 4.865c-0.126-0.119-0.273-0.199-0.428-0.245l-0.235-1.12c-0.071-0.339-0.404-0.556-0.743-0.485-0.252 0.053-0.437 0.251-0.486 0.489h-5.231c0.203 0.302 0.354 0.641 0.442 1.004h4.947l0.111 0.531-2.158 2.289c-0.447 0.052-3.46 0.405-3.886 0.454 0 0-3.861 0-4.905 0-1.372 0-2.505 1.116-2.511 2.499l-0.039 7.72c-0.004 0.746 0.528 1.142 1.056 1.144 0.002 0 0.004 0 0.005 0 0.583-0 1.058-0.472 1.061-1.056l0.011-2.266 0.028-5.531c0.003-0.122 0.104-0.218 0.225-0.216s0.219 0.101 0.219 0.222c-0.001 9.909-0.023 2.357-0.023 16.064 0.391-0.171 0.817-0.274 1.265-0.294v-0.252c-0.213-0.432-0.334-0.918-0.334-1.432 0-1.196 0.65-2.242 1.616-2.806v-3.625h0.55v3.37c0.339-0.12 0.702-0.186 1.082-0.186 0.527 0 1.025 0.127 1.466 0.351l-0.004-11.658c0.662-0.077 3.314-0.387 3.749-0.438 0.248-0.029 0.478-0.144 0.649-0.326l2.545-2.699c0.402-0.426 0.383-1.098-0.044-1.5z"></path>
<path d="M25.411 29.599c-0.007-1.335-1.1-2.414-2.426-2.414-0.685 0-4.819 0-5.504 0-1.331 0-2.42 1.083-2.426 2.414l-0.012 2.401h0.905c0-1.393 1.139-2.508 2.508-2.508h3.644c1.379 0 2.508 1.123 2.508 2.508h0.816l-0.012-2.401z"></path>
<path d="M20.241 22.258c-1.173 0-2.125 0.951-2.125 2.125 0 1.175 0.954 2.125 2.125 2.125 1.166 0 2.125-0.945 2.125-2.125 0-1.174-0.951-2.125-2.125-2.125z"></path>
<path d="M6.009 22.258c-1.171 0-2.125 0.948-2.125 2.125-0 1.18 0.959 2.125 2.125 2.125 1.171 0 2.125-0.951 2.125-2.125s-0.951-2.125-2.125-2.125z"></path>
<path d="M22.099 30.208h-3.644c-0.99 0-1.792 0.802-1.792 1.792h7.228c0-0.99-0.802-1.792-1.792-1.792z"></path>
<path d="M7.702 30.208h-3.644c-0.99 0-1.792 0.802-1.792 1.792 0.747 0 6.487 0 7.228 0 0-0.99-0.802-1.792-1.792-1.792z"></path>
<path d="M13.192 19.908c-0.488-0.111-0.974 0.195-1.085 0.684l-1.075 4.737c-0.244 0.179-2.261 1.654-2.537 1.856-0.558 0-4.91 0-5.231 0-1.324 0-2.42 1.077-2.426 2.414l-0.012 2.401h0.723c0-1.384 1.128-2.508 2.508-2.508h3.644c0.466 0 0.903 0.128 1.278 0.351l0.014-0.776 3.383-2.475c0.177-0.129 0.3-0.318 0.349-0.531l1.149-5.068c0.111-0.488-0.195-0.974-0.684-1.085z"></path>
</symbol>
<symbol id="icon-workplace" viewBox="0 0 32 32">
<title>workplace</title>
<path d="M15.143 21.536l-0.795 5.141c-0.133 0.862 0.458 1.67 1.32 1.803s1.67-0.458 1.803-1.32l0.87-5.624h-3.198z"></path>
<path d="M11.116 26.677l-0.795-5.141h-3.198l0.87 5.624c0.133 0.862 0.94 1.453 1.803 1.32s1.453-0.941 1.32-1.803z"></path>
<path d="M12.818 0c-1.51 0-2.729 1.224-2.729 2.729s1.22 2.729 2.729 2.729c1.506 0 2.729-1.22 2.729-2.729s-1.224-2.729-2.729-2.729z"></path>
<path d="M29.645 17.904c0-0.318-0.258-0.577-0.577-0.577h-4.146c0.076-0.121 0.121-0.263 0.121-0.416 0-0.432-0.35-0.782-0.782-0.782h-1.815c0-0.675 0-1.192 0-1.871h3.551c0.359 0 0.65-0.291 0.65-0.65v-5.71c0-0.359-0.291-0.65-0.65-0.65h-9.651c-0.359 0-0.65 0.291-0.65 0.65v5.71c0 0.359 0.291 0.65 0.65 0.65h3.551c0 0.68 0 1.196 0 1.871h-1.815c-0.431 0-0.782 0.349-0.782 0.782 0 0.153 0.045 0.295 0.121 0.416h-14.489c-0.318 0-0.577 0.258-0.577 0.577v2.084c0 0.318 0.258 0.577 0.577 0.577h0.903c0 0.407 0 9.799 0 10.262 0 0.648 0.525 1.173 1.173 1.173s1.173-0.525 1.173-1.173c0-0.463 0-9.855 0-10.262h19.632c0 0.407 0 9.799 0 10.262 0 0.648 0.525 1.173 1.173 1.173s1.173-0.525 1.173-1.173c0-0.463 0-9.855 0-10.262h0.909c0.318 0 0.577-0.258 0.577-0.577v-2.084zM21.172 11.828c-0.594 0-1.075-0.482-1.075-1.075s0.481-1.075 1.075-1.075c0.594 0 1.075 0.482 1.075 1.075s-0.481 1.075-1.075 1.075z"></path>
<path d="M14.758 13.608c0-0.574 0-4.996 0-5.71 0-0.799 0.594-1.461 1.364-1.571-0.731 0-5.881 0-6.709 0-1.143 0-2.205 0.664-2.705 1.692-0.73 1.502-1.556 3.378-1.909 4.26-0.264 0.659 0.042 1.408 0.692 1.694l4.609 2.030c0.665 0.293 1.443-0.009 1.736-0.674s-0.009-1.443-0.674-1.736l-3.422-1.507c0.388-0.892 0.883-1.98 1.337-2.916 0.022-0.045-0-0.069 0.048-0.058s0.084 0.053 0.085 0.103l0.137 2.483 2.219 0.977c1.172 0.516 1.704 1.886 1.188 3.058-0.103 0.234-0.241 0.442-0.404 0.622h3.972v-1.161c-0.863-0.014-1.562-0.72-1.562-1.587z"></path>
</symbol>
<symbol id="icon-exit" viewBox="0 0 32 32">
<title>exit</title>
<path d="M31.318 18.499h-1.091c0-0.525 0-0.87 0-1.383 0-0.348-0.282-0.63-0.63-0.63h-0.373c0.044-0.545-0.307-1.059-0.855-1.199-0.435-0.112-3.178-0.817-3.601-0.926l1.16-3.038c0.336-0.88-0.105-1.866-0.985-2.202l-2.656-1.027c-0.509-0.197-1.056-0.247-1.592-0.149-2.107 0.387-5.571 1.022-5.971 1.095-0.265 0.048-0.504 0.188-0.675 0.395l-2.357 2.845v-8.569c0-0.335-0.221-0.63-0.542-0.723l-5.071-1.48h13.149v5.564l1.507-0.197v-6.121c0-0.416-0.337-0.753-0.753-0.753-0.107 0-19.177-0.002-19.235 0.003-0.399 0.033-0.692 0.368-0.692 0.75 0 0.185-0.004 27.549 0.006 27.63 0.038 0.305 0.256 0.547 0.536 0.629l10.132 2.957c0.483 0.141 0.965-0.223 0.965-0.723v-15.605c0.175-0.068 0.335-0.179 0.463-0.334l3.39-4.092c0.413-0.075 3.314-0.606 3.78-0.691l-2.548 6.673c0 0 0.091-0.23-1.607 5.582l-1.976 3.756v3.558h0c0.582 0.142 1.204-0.124 1.494-0.675l2.902-5.517c0.041-0.079 0.075-0.161 0.1-0.247l1.606-5.496c0.117 0.045 0.059 0.023 0.362 0.138 0.404 0.635 2.394 3.761 2.797 4.393l-2.011 5.663c-0.246 0.694 0.116 1.455 0.81 1.702 0.69 0.245 1.455-0.115 1.702-0.81l2.228-6.276c0.134-0.377 0.094-0.807-0.132-1.162l-1.955-3.071c0.285-0.746 0.563-1.474 0.849-2.224 1.086 0.279 1.8 0.463 1.8 0.463l-0.016 1.524h-1.091c-0.142 0-0.272 0.047-0.377 0.126l1.67 2.622c0.395 0.621 0.481 1.375 0.235 2.069l-0.277 0.781h5.43c0.348 0 0.63-0.282 0.63-0.63v-4.338c0-0.348-0.282-0.63-0.63-0.63zM9.544 19.811c0 0.416-0.337 0.753-0.754 0.753s-0.754-0.337-0.754-0.753v-4.35c0-0.416 0.337-0.754 0.754-0.754s0.754 0.337 0.754 0.754v4.35zM28.966 18.499h-1.975v-0.753h1.975v0.753z"></path>
<path d="M19.738 20.36l-0.512 1.752v5.424h-2.371l-0.793 1.507h3.275c-0.036-0.347 0.005-0.7 0.125-1.039l1.27-3.576v-2.504l-0.995-1.563z"></path>
<path d="M26.057 3.165c-1.303-0.497-2.762 0.155-3.26 1.458-0.502 1.314 0.169 2.767 1.458 3.26 1.291 0.493 2.759-0.146 3.26-1.458 0.497-1.303-0.155-2.762-1.458-3.26z"></path>
</symbol>
</defs>
</svg>
